<svg version="1.1" id="Layer_1" xmlns="http://www.w3.org/2000/svg" xmlns:xlink="http://www.w3.org/1999/xlink" x="0px" y="0px"
	 width="100%" viewBox="0 0 416 432" enable-background="new 0 0 416 432" xml:space="preserve">
<path fill="#000000" opacity="1.000000" stroke="none" 
	d="
M1.000000,12.000000 
	C1.000000,10.285546 1.000000,8.571094 1.086604,6.064430 
	C2.593490,1.343961 6.012094,1.718176 9.124677,1.718766 
	C125.208046,1.740805 241.291473,1.857453 357.374695,1.749011 
	C370.991547,1.736290 384.163574,3.800885 397.392212,6.645265 
	C403.770996,8.016804 410.276825,9.842510 417.000000,9.000000 
	C417.000000,150.333328 417.000000,291.666656 417.000000,433.000000 
	C279.666656,433.000000 142.333328,433.006622 5.000082,432.897064 
	C3.747426,432.896057 0.685187,434.962952 1.080282,430.096069 
	C1.349528,427.553589 1.704134,425.914978 1.703882,424.276459 
	C1.683136,289.329742 1.637941,154.383057 1.564076,19.436369 
	C1.562719,16.957478 1.196160,14.478786 1.000000,12.000000 
M164.761444,123.500015 
	C164.769760,108.837051 164.654007,94.172363 164.857239,79.512100 
	C164.923645,74.722450 163.078720,73.009132 158.388199,73.072716 
	C145.060150,73.253365 131.727264,73.256042 118.398605,73.112656 
	C113.829285,73.063507 112.324379,74.930984 112.327888,79.395851 
	C112.400650,171.875381 112.392723,264.355042 112.306755,356.834534 
	C112.302765,361.123291 113.717819,362.777679 118.101128,362.704071 
	C130.095108,362.502655 142.094681,362.637695 154.092026,362.631958 
	C164.721603,362.626862 164.607391,362.620087 164.821747,351.944427 
	C164.898117,348.140991 163.795273,344.098419 165.850266,340.453735 
	C168.400131,340.877930 169.763260,342.455750 171.341995,343.616211 
	C200.277420,364.884216 232.119263,369.186646 265.646790,357.945923 
	C320.687225,339.492584 353.423553,281.366913 338.451935,220.136429 
	C319.348083,142.006363 229.430740,110.811699 169.984497,155.035553 
	C168.827332,155.896393 167.732162,157.083405 165.178497,156.446869 
	C164.340576,145.966125 164.951340,135.217407 164.761444,123.500015 
z"/>
<path fill="#000000" opacity="1.000000" stroke="none" 
	d="
M254.680969,305.876251 
	C220.227081,320.921814 183.889709,308.232605 168.769119,276.168976 
	C149.055725,234.366180 178.885040,186.347427 224.387283,185.458145 
	C254.059479,184.878220 279.716583,204.172272 287.011475,232.096390 
	C294.851013,262.105591 282.358032,290.818665 254.680969,305.876251 
z"/>
</svg>